# xmcd
#
# Track frame offsets: 
#        150
#        17454
#        34660
#        48441
#        60009
#        76418
#        95053
#        110772
#        133980
#        150404
#        166307
#        182517
#        196858
#
# Disc length: 2847 seconds
#
# Revision: 0
# Processed by: cddbd v1.5.2PL0 Copyright (c) Steve Scherf et al.
# Submitted via: ExactAudioCopy v1.0b1
#
DISCID=9b0b1d0d
DTITLE=The Cash Box Kings - Black Toppin'
DYEAR=2013
DGENRE=Electric Chicago Blues - Delta Blues
TTITLE0=Blues Falling Down On Me
TTITLE1=Black Toppin
TTITLE2=Trying Really Hard (To Try And Get Along With You)
TTITLE3=Oscar S Jump
TTITLE4=Money, Marbles and Chalk
TTITLE5=My Tinai
TTITLE6=Too Late
TTITLE7=Walking Blues
TTITLE8=I Don T Wanna Fight
TTITLE9=Tom Cat Blues
TTITLE10=Hot Biscuit Baby
TTITLE11=Gimme Some Of That
TTITLE12=Run Run Run
EXTD=
EXTT0=
EXTT1=
EXTT2=
EXTT3=
EXTT4=
EXTT5=
EXTT6=
EXTT7=
EXTT8=
EXTT9=
EXTT10=
EXTT11=
EXTT12=
PLAYORDER=
